<svg width="228" height="38" viewBox="0 0 228 38" fill="none" xmlns="http://www.w3.org/2000/svg">
<path d="M94.7518 23.6997C94.7518 22.3911 95.8124 21.3298 97.1217 21.3298H111.201C115.188 21.3298 118.527 18.0668 118.451 14.0809C118.377 10.2181 115.222 7.11002 111.342 7.11002L91.483 7.10938C90.6709 7.10938 90.0118 7.76848 90.0118 8.58057V10.3788C90.0118 11.1908 90.6709 11.8493 91.483 11.8493H111.263C112.569 11.8493 113.688 12.8705 113.711 14.1753C113.736 15.505 112.666 16.5899 111.342 16.5899H97.1217C93.1952 16.5899 90.0118 19.7732 90.0118 23.6997V30.8096H116.981C117.793 30.8096 118.452 30.1512 118.452 29.3384V27.5409C118.452 26.7288 117.793 26.0697 116.981 26.0697H94.7518V23.6997Z" fill="#00DDA5"/>
<path d="M187.176 30.8096C191.057 30.8096 194.211 27.7008 194.284 23.8386C194.36 19.8521 191.022 16.5898 187.036 16.5898H173.034C171.73 16.5898 170.61 15.5686 170.586 14.2638C170.562 12.9348 171.632 11.8499 172.956 11.8499H192.815C193.627 11.8499 194.286 11.1908 194.286 10.3787V8.58113C194.286 7.76841 193.627 7.10994 192.815 7.10994H173.096C169.11 7.10994 165.771 10.3723 165.847 14.3581C165.921 18.221 169.075 21.3297 172.956 21.3297H187.097C188.402 21.3297 189.522 22.3502 189.546 23.6551C189.57 24.9847 188.5 26.0696 187.176 26.0696H167.317C166.505 26.0696 165.846 26.7287 165.846 27.5408V29.3384C165.846 30.1511 166.505 30.8096 167.317 30.8096H187.176Z" fill="#FAFAFA"/>
<path d="M225.994 7.10982H206.277C202.358 7.10982 199.07 10.2205 199.026 14.1388C199.006 15.9918 199.694 17.6835 200.836 18.9596C199.71 20.2173 199.026 21.8784 199.026 23.6995C199.026 27.6261 202.209 30.8094 206.136 30.8094H225.994C226.807 30.8094 227.466 30.151 227.466 29.3389V27.5413C227.466 26.7286 226.807 26.0695 225.994 26.0695H206.214C204.91 26.0695 203.79 25.049 203.766 23.7442C203.742 22.4145 204.812 21.3296 206.136 21.3296H225.994C226.807 21.3296 227.466 20.6711 227.466 19.8584V18.0609C227.466 17.2488 226.807 16.5897 225.994 16.5897H206.214C204.91 16.5897 203.79 15.5691 203.766 14.2643C203.742 12.9346 204.812 11.8497 206.136 11.8497H225.994C226.807 11.8497 227.466 11.1906 227.466 10.3786V8.58101C227.466 7.76828 226.807 7.10982 225.994 7.10982Z" fill="#FAFAFA"/>
<path d="M78.1622 26.0698H61.5725V21.3293H78.1622C79.4715 21.3293 80.5322 22.3906 80.5322 23.6999C80.5322 25.0085 79.4715 26.0698 78.1622 26.0698ZM61.5725 11.8494H78.1622C79.4715 11.8494 80.5322 12.9107 80.5322 14.22C80.5322 15.5287 79.4715 16.59 78.1622 16.59H61.5725V11.8494ZM85.2715 14.1384C85.2275 10.2201 81.9396 7.11013 78.0207 7.11013H58.3038C57.491 7.11013 56.8326 7.76859 56.8326 8.58067V29.3386C56.8326 30.1513 57.491 30.8097 58.3038 30.8097H78.1622C82.0888 30.8097 85.2721 27.6264 85.2721 23.6999C85.2721 21.8787 84.5875 20.2176 83.4618 18.9599C84.6041 17.6832 85.2925 15.9914 85.2715 14.1384Z" fill="#00DDA5"/>
<path d="M161.106 10.3842V8.58095C161.106 7.76823 160.447 7.10976 159.635 7.10976H157.837C157.025 7.10976 156.366 7.76887 156.367 8.58159V10.3849C156.367 11.197 157.026 11.8554 157.838 11.8554H159.635C160.447 11.8554 161.106 11.197 161.106 10.3842Z" fill="#00DDA5"/>
<path d="M156.368 14.7429L156.372 29.3387C156.372 30.1508 157.03 30.8093 157.843 30.8093H159.635C160.447 30.8093 161.106 30.1508 161.106 29.3381V17.1345C161.106 16.7878 160.968 16.4544 160.722 16.209L158.409 13.897C157.655 13.1436 156.368 13.6771 156.368 14.7429Z" fill="#FAFAFA"/>
<path d="M123.192 24.223V29.3384C123.192 30.1511 123.85 30.8096 124.663 30.8096H126.461C127.273 30.8096 127.932 30.1511 127.932 29.3384V26.6165C127.932 26.2691 127.794 25.9358 127.548 25.6904L125.234 23.3771C124.48 22.6237 123.192 23.1572 123.192 24.223Z" fill="#00DDA5"/>
<path d="M127.932 16.5895V11.8496H144.519C145.828 11.8496 146.889 12.9109 146.889 14.2196C146.889 15.5288 145.828 16.5895 144.519 16.5895H127.932ZM144.05 21.3295H144.519C148.442 21.4117 151.629 18.1487 151.629 14.2196C151.629 10.293 148.446 7.11287 144.519 7.10969H124.663C123.85 7.10969 123.192 7.76879 123.192 8.58087V21.3346H127.932V21.3295H137.975L145.274 30.4549C145.453 30.6793 145.724 30.8099 146.012 30.8106L149.084 30.8163C150.109 30.8182 150.681 29.6332 150.041 28.8326L144.05 21.3295Z" fill="#FAFAFA"/>
<path d="M42.4925 14.6966C40.2641 12.9162 37.4409 11.8498 34.3672 11.8498H4.74015V4.73992H34.3672C38.9471 4.73992 42.6595 8.45231 42.6595 13.0322C42.6595 13.6027 42.6022 14.1592 42.4925 14.6966ZM34.3672 33.175H8.2951C6.33181 33.175 4.74015 31.5833 4.74015 29.6201C4.74015 27.6568 6.33181 26.0651 8.2951 26.0651H34.3672C37.4409 26.0651 40.2641 24.9987 42.4925 23.2184C42.6022 23.7563 42.6595 24.3128 42.6595 24.8827C42.6595 29.4626 38.9471 33.175 34.3672 33.175ZM47.3995 13.1431C47.46 5.91407 41.4051 0 34.176 0H1.47142C0.658698 0 0.000229399 0.658466 0.000229399 1.47119V15.1185C0.000229399 15.9313 0.658698 16.5897 1.47142 16.5897H34.3672C36.6256 16.5897 38.673 17.493 40.1685 18.9578C38.673 20.422 36.6256 21.3252 34.3672 21.3252H8.45892C3.8076 21.3252 -0.0877365 25.1319 0.00150356 29.782C0.0875565 34.2886 3.76807 37.9149 8.2951 37.9149H34.176C41.4038 37.9149 47.4587 32.0015 47.3995 24.7737C47.3822 22.6791 46.8666 20.705 45.9716 18.9578C46.8666 17.2106 47.3816 15.2371 47.3995 13.1431Z" fill="#00DDA5"/>
</svg>
