<svg width="603" height="100" viewBox="0 0 603 100" fill="none" xmlns="http://www.w3.org/2000/svg">
<path d="M251.182 62.5077C251.182 59.0562 253.994 56.2569 257.465 56.2569H294.789C305.359 56.2569 314.208 47.6508 314.007 37.1382C313.811 26.9501 305.448 18.7525 295.163 18.7525L242.517 18.7508C240.364 18.7508 238.617 20.4892 238.617 22.6311V27.3738C238.617 29.5156 240.364 31.2523 242.517 31.2523H294.953C298.414 31.2523 301.381 33.9456 301.443 37.3871C301.509 40.8941 298.672 43.7555 295.163 43.7555H257.465C247.056 43.7555 238.617 52.1514 238.617 62.5077V81.2599H310.11C312.263 81.2599 314.01 79.5232 314.01 77.3797V72.6386C314.01 70.4968 312.263 68.7584 310.11 68.7584H251.182V62.5077Z" fill="#00DDA5"/>
<path d="M496.194 81.2598C506.481 81.2598 514.842 73.0605 515.038 62.8741C515.24 52.3598 506.39 43.7554 495.822 43.7554H458.706C455.247 43.7554 452.278 41.0621 452.215 37.6206C452.151 34.1153 454.988 31.2539 458.498 31.2539H511.142C513.296 31.2539 515.042 29.5155 515.042 27.3737V22.6326C515.042 20.4891 513.296 18.7524 511.142 18.7524H458.87C448.302 18.7524 439.451 27.3568 439.653 37.8694C439.849 48.0576 448.211 56.2568 458.498 56.2568H495.986C499.445 56.2568 502.412 58.9484 502.477 62.3899C502.541 65.8969 499.704 68.7583 496.194 68.7583H443.55C441.396 68.7583 439.65 70.4967 439.65 72.6385V77.3795C439.65 79.5231 441.396 81.2598 443.548 81.2598H496.194Z" fill="#20124E"/>
<path d="M599.1 18.752H546.83C536.441 18.752 527.725 26.9563 527.608 37.2907C527.554 42.178 529.379 46.6399 532.407 50.0057C529.421 53.3227 527.608 57.704 527.608 62.5072C527.608 72.8634 536.045 81.2594 546.456 81.2594H599.1C601.254 81.2594 603 79.5227 603 77.3809V72.6398C603 70.4963 601.254 68.7579 599.1 68.7579H546.664C543.205 68.7579 540.236 66.0663 540.174 62.6249C540.109 59.1179 542.946 56.2565 546.456 56.2565H599.1C601.254 56.2565 603 54.5198 603 52.3762V47.6352C603 45.4934 601.254 43.755 599.1 43.755H546.664C543.205 43.755 540.236 41.0634 540.174 37.6219C540.109 34.1149 542.946 31.2535 546.456 31.2535H599.1C601.254 31.2535 603 29.5151 603 27.3733V22.6323C603 20.4887 601.254 18.752 599.1 18.752Z" fill="#20124E"/>
<path d="M207.204 68.7588H163.226V56.2556H207.204C210.675 56.2556 213.487 59.0548 213.487 62.508C213.487 65.9596 210.675 68.7588 207.204 68.7588ZM163.226 31.2527H207.204C210.675 31.2527 213.487 34.0519 213.487 37.5051C213.487 40.9566 210.675 43.7558 207.204 43.7558H163.226V31.2527ZM226.05 37.2899C225.934 26.9555 217.218 18.7529 206.829 18.7529H154.56C152.406 18.7529 150.66 20.4896 150.66 22.6314V77.38C150.66 79.5236 152.406 81.2603 154.56 81.2603H207.204C217.613 81.2603 226.052 72.8643 226.052 62.508C226.052 57.7048 224.237 53.3236 221.253 50.0066C224.281 46.6391 226.106 42.1772 226.05 37.2899Z" fill="#00DDA5"/>
<path d="M427.084 27.3883V22.6322C427.084 20.4886 425.338 18.752 423.183 18.752H418.418C416.265 18.752 414.518 20.4903 414.52 22.6339V27.39C414.522 29.5319 416.267 31.2686 418.42 31.2686H423.183C425.338 31.2686 427.084 29.5319 427.084 27.3883Z" fill="#00DDA5"/>
<path d="M414.523 38.8842L414.533 77.3805C414.533 79.5223 416.279 81.259 418.433 81.259H423.183C425.338 81.259 427.083 79.5223 427.083 77.3788V45.1921C427.083 44.2775 426.718 43.3982 426.066 42.7509L419.936 36.6532C417.937 34.666 414.523 36.0732 414.523 38.8842Z" fill="#20124E"/>
<path d="M326.576 63.8878V77.3795C326.576 79.5231 328.321 81.2598 330.476 81.2598H335.241C337.395 81.2598 339.141 79.5231 339.141 77.3795V70.2008C339.141 69.2845 338.776 68.4052 338.124 67.758L331.988 61.6569C329.991 59.6697 326.576 61.0769 326.576 63.8878Z" fill="#00DDA5"/>
<path d="M339.141 43.7547V31.2532H383.113C386.582 31.2532 389.396 34.0524 389.396 37.5039C389.396 40.9571 386.582 43.7547 383.113 43.7547H339.141ZM381.869 56.2561H383.113C393.514 56.473 401.961 47.8669 401.961 37.5039C401.961 27.1477 393.522 18.7601 383.113 18.7517H330.474C328.321 18.7517 326.576 20.4901 326.576 22.632V56.2696H339.141V56.2561H365.764L385.114 80.3243C385.589 80.9161 386.308 81.2608 387.071 81.2624L395.215 81.2776C397.933 81.2826 399.447 78.1573 397.752 76.0457L381.869 56.2561Z" fill="#20124E"/>
<path d="M112.646 38.762C106.738 34.0663 99.254 31.2537 91.1058 31.2537H12.5659V12.5015H91.1058C103.247 12.5015 113.088 22.2928 113.088 34.3723C113.088 35.877 112.936 37.3447 112.646 38.762ZM91.1058 87.4985H21.9899C16.7853 87.4985 12.5659 83.3006 12.5659 78.1224C12.5659 72.9443 16.7853 68.7463 21.9899 68.7463H91.1058C99.254 68.7463 106.738 65.9337 112.646 61.238C112.936 62.657 113.088 64.1247 113.088 65.6277C113.088 77.7072 103.247 87.4985 91.1058 87.4985ZM125.654 34.6648C125.814 15.5983 109.763 0 90.5989 0H3.90066C1.74617 0 0.000608126 1.73669 0.000608126 3.88023V39.8749C0.000608126 42.0185 1.74617 43.7551 3.90066 43.7551H91.1058C97.0927 43.7551 102.52 46.1374 106.485 50.0008C102.52 53.8626 97.0927 56.2449 91.1058 56.2449H22.4242C10.0937 56.2449 -0.232585 66.285 0.00398586 78.5495C0.232108 90.4356 9.98898 100 21.9899 100H90.5989C109.759 100 125.811 84.4034 125.654 65.3402C125.608 59.8157 124.241 54.609 121.868 50.0008C124.241 45.3926 125.606 40.1876 125.654 34.6648Z" fill="#00DDA5"/>
</svg>
