<svg width="708" height="520" viewBox="0 0 708 520" fill="none" xmlns="http://www.w3.org/2000/svg">
<path d="M616.548 25.2957C551.061 -10.0028 489.388 46.5949 427.245 46.5949C356.631 46.5949 310.759 24.3004 271.125 8.75465C212.974 -14.0544 157.005 13.5725 116.365 25.2957C33.4348 49.218 -9.39144 159.808 22.3309 179.376C81.4705 215.857 87.1353 340.027 36.3178 376.799C-87.769 466.59 137.664 541.465 240.309 513.368C320.892 491.31 353.603 462.159 456.248 486.404C560.66 511.066 619.165 483.231 661.537 444.711C703.909 406.191 647.036 347.731 647.036 347.731C647.036 347.731 595.6 264.347 675.133 221.975C738.759 188.077 690.415 105.544 690.415 105.544C690.415 105.544 654.042 45.506 616.548 25.2957Z" fill="white"/>
<path d="M616.548 25.2957C551.061 -10.0028 489.388 46.5949 427.245 46.5949C356.631 46.5949 310.759 24.3004 271.125 8.75465C212.974 -14.0544 157.005 13.5725 116.365 25.2957C33.4348 49.218 -9.39144 159.808 22.3309 179.376C81.4705 215.857 87.1353 340.027 36.3178 376.799C-87.769 466.59 137.664 541.465 240.309 513.368C320.892 491.31 353.603 462.159 456.248 486.404C560.66 511.066 619.165 483.231 661.537 444.711C703.909 406.191 647.036 347.731 647.036 347.731C647.036 347.731 595.6 264.347 675.133 221.975C738.759 188.077 690.415 105.544 690.415 105.544C690.415 105.544 654.042 45.506 616.548 25.2957Z" fill="#20124E" fill-opacity="0.1"/>
<ellipse cx="354.611" cy="390.865" rx="177.872" ry="12.9156" fill="black" fill-opacity="0.05"/>
<path d="M512.118 263.004C505.21 257.486 496.459 254.18 486.932 254.18H395.097V232.142H486.932C501.128 232.142 512.635 243.649 512.635 257.845C512.635 259.614 512.457 261.338 512.118 263.004ZM486.932 320.281H406.117C400.031 320.281 395.097 315.348 395.097 309.262C395.097 303.177 400.031 298.243 406.117 298.243H486.932C496.459 298.243 505.21 294.937 512.118 289.419C512.457 291.086 512.635 292.811 512.635 294.578C512.635 308.774 501.128 320.281 486.932 320.281ZM527.328 258.189C527.515 235.781 508.747 217.449 486.339 217.449H384.965C382.446 217.449 380.405 219.49 380.405 222.01V264.312C380.405 266.831 382.446 268.872 384.965 268.872H486.932C493.932 268.872 500.278 271.672 504.914 276.212C500.278 280.751 493.932 283.551 486.932 283.551H406.624C392.207 283.551 380.133 295.35 380.409 309.764C380.676 323.733 392.084 334.973 406.117 334.973H486.339C508.743 334.973 527.511 316.644 527.328 294.24C527.274 287.747 525.676 281.628 522.902 276.212C525.676 270.797 527.272 264.68 527.328 258.189Z" fill="#00DDA5"/>
<ellipse cx="393.741" cy="381.056" rx="8.69792" ry="8.36339" transform="rotate(-90 393.741 381.056)" fill="#202020"/>
<ellipse cx="494.102" cy="380.387" rx="8.69792" ry="8.36339" transform="rotate(-90 494.102 380.387)" fill="#202020"/>
<path d="M403.263 370.351H393.896C392.893 371.355 391.889 380.722 393.896 382.729C395.502 384.335 400.81 375.146 403.263 370.351Z" fill="#D9D9D9"/>
<path d="M502.286 370.351H492.919C491.915 371.355 490.912 380.722 492.919 382.729C494.525 384.335 499.833 375.146 502.286 370.351Z" fill="#D9D9D9"/>
<path d="M381.263 335.197L370.814 260.563H543.917L513.168 335.197H428.198H381.263ZM544.202 259.873L544.201 259.875L544.202 259.873Z" stroke="#292929" stroke-width="9"/>
<path d="M428.533 337.69C427.083 341.147 414.163 345.154 380.694 357.093C371.662 360.315 366.978 364.664 373 369.136L510.494 367.798" stroke="#292929" stroke-width="9"/>
<path d="M352.572 246.151C355.117 243.7 360.694 240.268 362.638 246.151C364.582 252.035 367.613 260.335 368.886 263.749" stroke="#292929" stroke-width="9"/>
<path d="M403.443 337.69L400.766 256.732M438.234 258.405L432.547 337.69M475.033 258.405L461.317 338.694M510.494 258.405L489.418 337.69" stroke="#292929" stroke-width="9"/>
<path d="M370.993 284.499H535.919M523.875 312.265H376.011" stroke="#292929" stroke-width="9"/>
<ellipse cx="350.079" cy="248.114" rx="4.75836" ry="5.21154" fill="#202020"/>
<path d="M292.462 239.582L262.584 221.591L254.552 233.799L322.983 391.545L292.462 239.582Z" fill="#088162"/>
<path d="M168.129 255.003L239.452 316.367L249.733 286.809L168.129 255.003Z" fill="#10B48A"/>
<path d="M293.747 235.727L260.335 221.269C251.805 226.899 249.894 234.056 245.235 243.437C232.527 269.026 239.452 316.367 239.452 316.367L291.177 244.08L293.747 235.727Z" fill="#00BD8D"/>
<ellipse cx="330.335" cy="135.986" rx="11.8342" ry="18.8303" transform="rotate(31.4419 330.335 135.986)" fill="#FBD6CB"/>
<path d="M322.769 149.657C317.115 159.424 322.556 172.133 324.483 176.309H317.094L306.813 155.427C306.064 152.856 305.014 147.78 306.813 148.037C308.612 148.294 313.56 141.896 317.094 141.039L322.769 149.657Z" fill="#FBD6CB"/>
<path d="M309.293 150.908L316.158 153.931C319.49 171.301 322.834 171.254 325.608 177.419C327.647 181.951 324.685 187.371 322.662 189.201C317.904 193.507 314.505 191.241 312.239 194.413C309.404 198.383 300.91 239.277 293.206 244.716L255.665 224.807C257.986 215.331 275.561 204.615 284.878 199.462C288.848 197.266 288.807 195.649 290.349 193.355C289.012 177.328 300.924 159.797 309.293 150.908Z" fill="#20124E"/>
<path d="M326.896 138.701C331.609 137.738 341.418 135.681 342.96 135.167L341.73 139.89C341.73 139.89 345.102 139.879 345.852 138.701C346.601 137.523 348.036 134.653 347.779 132.597C347.458 130.027 345.209 123.28 341.033 121.353C336.856 119.425 333.931 118.287 329.089 117.769C320.119 116.809 311.047 122.638 306.656 123.28C302.158 124.565 293.034 127.328 292.52 128.099C292.006 128.87 284.809 131.419 281.275 132.597C281.275 132.597 269.252 138.761 266.818 146.091C265.511 150.027 264.125 153.087 266.175 156.693C267.827 159.597 269.976 160.816 273.244 161.512C276.35 162.174 281.275 160.227 281.275 160.227C281.275 160.227 285.155 159.203 287.701 158.942C290.447 158.66 294.769 158.942 294.769 158.942H300.552C300.552 158.942 307.062 158.621 309.226 155.729C310.203 154.423 310.833 151.874 310.833 151.874L312.118 146.091C312.118 146.091 313.649 144.686 314.438 143.624C315.426 142.295 316.449 139.89 316.449 139.89L315.013 152.53L331.073 132.597L326.896 138.701Z" fill="#2A2121"/>
<path d="M352.572 239.504L352.119 242.903C344.868 241.317 344.641 245.622 344.641 249.474L342.066 244.617L298.644 174.926L305.895 167.449L345.321 240.864L352.572 239.504Z" fill="#FBD6CB"/>
<path d="M263.151 226.14C263.244 225.961 263.466 225.893 263.646 225.987L265.592 226.998C266.144 227.285 266.837 227.079 267.109 226.529C267.373 225.996 267.158 225.345 266.621 225.066L263.877 223.64C263.764 223.581 263.626 223.624 263.569 223.735L263.441 223.98C263.383 224.091 263.428 224.229 263.54 224.287L266.274 225.708C266.454 225.802 266.537 226.022 266.447 226.201C266.356 226.385 266.131 226.456 265.948 226.361L263.983 225.339C263.44 225.057 262.774 225.263 262.496 225.8L261.991 226.771L265.718 228.708C265.831 228.766 265.968 228.724 266.026 228.613L266.154 228.367C266.211 228.256 266.167 228.119 266.055 228.061L262.982 226.464L263.151 226.14Z" fill="#00DDA5"/>
<path d="M275.42 233.751C275.957 234.029 276.613 233.831 276.897 233.309C277.191 232.77 276.961 232.085 276.41 231.799L274.475 230.793C274.295 230.699 274.212 230.479 274.302 230.299C274.393 230.116 274.618 230.045 274.801 230.14L277.545 231.566C277.658 231.625 277.795 231.582 277.853 231.471L277.981 231.226C278.038 231.115 277.994 230.977 277.882 230.919L275.156 229.503C274.605 229.216 273.912 229.422 273.64 229.972C273.376 230.505 273.591 231.156 274.128 231.434L276.082 232.45C276.263 232.544 276.345 232.764 276.256 232.944C276.165 233.127 275.94 233.198 275.757 233.103L273.012 231.677C272.9 231.618 272.762 231.661 272.704 231.772L272.577 232.017C272.519 232.128 272.563 232.266 272.675 232.324L275.42 233.751Z" fill="#FAFAFA"/>
<path d="M282.468 233.303L279.742 231.886C279.201 231.605 278.526 231.793 278.241 232.325C278.107 232.577 278.082 232.857 278.149 233.114C277.904 233.204 277.692 233.382 277.563 233.631C277.284 234.167 277.498 234.83 278.041 235.113L280.785 236.539C280.898 236.598 281.035 236.555 281.093 236.444L281.221 236.199C281.278 236.088 281.234 235.95 281.122 235.892L278.388 234.471C278.208 234.377 278.125 234.157 278.215 233.977C278.306 233.794 278.531 233.723 278.714 233.818L281.458 235.245C281.571 235.303 281.708 235.26 281.766 235.149L281.894 234.904C281.951 234.793 281.907 234.656 281.795 234.597L279.061 233.176C278.881 233.083 278.798 232.863 278.888 232.683C278.979 232.499 279.203 232.428 279.386 232.523L282.131 233.95C282.244 234.008 282.381 233.966 282.439 233.855L282.567 233.609C282.624 233.498 282.58 233.361 282.468 233.303Z" fill="#FAFAFA"/>
<path d="M260.69 225.272L258.397 224.08L258.733 223.433L261.026 224.625C261.207 224.719 261.278 224.94 261.185 225.119C261.092 225.297 260.87 225.366 260.69 225.272ZM259.406 222.138L261.699 223.33C261.88 223.424 261.951 223.645 261.858 223.824C261.765 224.003 261.543 224.072 261.362 223.978L259.069 222.786L259.406 222.138ZM262.519 224.153C262.791 223.615 262.557 222.954 262.016 222.673L259.291 221.256C259.178 221.198 259.041 221.241 258.983 221.351L257.509 224.186C257.452 224.297 257.496 224.435 257.608 224.493L260.353 225.919C260.896 226.202 261.562 225.995 261.84 225.459C261.97 225.211 261.993 224.934 261.927 224.682C262.175 224.59 262.39 224.408 262.519 224.153Z" fill="#00DDA5"/>
<path d="M273.267 229.088L273.395 228.842C273.453 228.731 273.408 228.594 273.296 228.535L273.047 228.406C272.935 228.348 272.797 228.391 272.74 228.502L272.612 228.748C272.554 228.859 272.598 228.996 272.711 229.054L272.959 229.184C273.071 229.242 273.209 229.199 273.267 229.088Z" fill="#00DDA5"/>
<path d="M272.303 229.343L271.267 231.337C271.209 231.448 271.254 231.585 271.366 231.643L271.614 231.772C271.726 231.831 271.864 231.788 271.921 231.677L272.788 230.01C272.812 229.963 272.817 229.908 272.8 229.856L272.645 229.374C272.594 229.217 272.378 229.198 272.303 229.343Z" fill="#FAFAFA"/>
<path d="M267.044 228.255L266.681 228.953C266.623 229.064 266.668 229.201 266.78 229.26L267.029 229.389C267.141 229.447 267.279 229.405 267.336 229.294L267.53 228.922C267.554 228.875 267.559 228.819 267.542 228.768L267.387 228.286C267.336 228.129 267.12 228.109 267.044 228.255Z" fill="#00DDA5"/>
<path d="M268.241 227.553L268.578 226.905L270.87 228.097C271.051 228.191 271.122 228.412 271.03 228.591C270.937 228.77 270.715 228.838 270.534 228.744L268.241 227.553ZM270.133 229.358L270.197 229.392C270.734 229.685 271.406 229.468 271.685 228.931C271.963 228.395 271.749 227.732 271.207 227.45L268.462 226.023C268.35 225.965 268.212 226.008 268.155 226.118L267.249 227.86L267.904 228.201L267.905 228.2L269.293 228.921L269.654 230.692C269.663 230.736 269.691 230.773 269.731 230.794L270.155 231.015C270.296 231.089 270.46 230.968 270.428 230.813L270.133 229.358Z" fill="#FAFAFA"/>
</svg>
